<?xml version="1.0" encoding="UTF-8" standalone="no"?>
<svg
   xmlns:dc="http://purl.org/dc/elements/1.1/"
   xmlns:cc="http://creativecommons.org/ns#"
   xmlns:rdf="http://www.w3.org/1999/02/22-rdf-syntax-ns#"
   xmlns:svg="http://www.w3.org/2000/svg"
   xmlns="http://www.w3.org/2000/svg"
   xmlns:sodipodi="http://sodipodi.sourceforge.net/DTD/sodipodi-0.dtd"
   xmlns:inkscape="http://www.inkscape.org/namespaces/inkscape"
   width="1200"
   height="1200"
   viewBox="0 0 317.5 317.50001"
   version="1.1"
   id="svg8"
   inkscape:version="1.0 (4035a4fb49, 2020-05-01)"
   sodipodi:docname="sls (2).svg">
  <defs
     id="defs2" />
  <sodipodi:namedview
     id="base"
     pagecolor="#ffffff"
     bordercolor="#666666"
     borderopacity="1.0"
     inkscape:pageopacity="0.0"
     inkscape:pageshadow="2"
     inkscape:zoom="0.7"
     inkscape:cx="206.329"
     inkscape:cy="521.78227"
     inkscape:document-units="mm"
     inkscape:current-layer="layer2"
     inkscape:document-rotation="0"
     showgrid="false"
     units="px"
     inkscape:pagecheckerboard="true"
     inkscape:window-width="2560"
     inkscape:window-height="1346"
     inkscape:window-x="-11"
     inkscape:window-y="-11"
     inkscape:window-maximized="1" />
  <metadata
     id="metadata5">
    <rdf:RDF>
      <cc:Work
         rdf:about="">
        <dc:format>image/svg+xml</dc:format>
        <dc:type
           rdf:resource="http://purl.org/dc/dcmitype/StillImage" />
        <dc:title />
      </cc:Work>
    </rdf:RDF>
  </metadata>
  <g
     inkscape:groupmode="layer"
     id="layer2"
     inkscape:label="Слой 2"
     style="display:inline">
    <path
       transform="scale(0.26458333)"
       d="M 348.86719 9.09375 C 338.82136 9.09375 330.67665 14.314529 326.57422 18.484375 C 322.47179 22.654221 320.81106 26.14419 319.5918 29.083984 C 317.15326 34.963573 316.72656 39.283514 316.72656 43.921875 L 316.72656 195.73047 L 258.57227 195.73047 C 238.74458 195.73047 222.69347 206.0485 214.7168 214.15625 C 206.74012 222.26401 203.62954 228.91859 201.36328 234.38281 C 196.83076 245.31126 196.18945 252.79914 196.18945 260.80273 L 196.18945 314.29102 L 45.945312 314.29102 C 41.30694 314.29102 36.987001 314.71772 31.107422 317.15625 C 28.167632 318.37552 24.669839 320.02844 20.5 324.13086 C 16.330161 328.23328 11.109375 336.38578 11.109375 346.43164 L 11.109375 401.9668 C 11.109375 412.01252 16.330194 420.15732 20.5 424.25977 C 24.669806 428.36222 28.167611 430.02287 31.107422 431.24219 C 36.987042 433.68078 41.30688 434.10742 45.945312 434.10742 L 196.18945 434.10742 L 196.18945 540.00781 L 45.945312 540.00781 C 41.307027 540.00781 36.987034 540.42477 31.107422 542.86328 C 28.167615 544.08256 24.669884 545.74517 20.5 549.84766 C 16.330117 553.95011 11.109375 562.10272 11.109375 572.14844 L 11.109375 627.68164 C 11.109375 637.72736 16.330117 645.87212 20.5 649.97461 C 24.669884 654.07706 28.167615 655.73975 31.107422 656.95898 C 36.987034 659.3975 41.307027 659.82227 45.945312 659.82227 L 196.18945 659.82227 L 196.18945 765.7168 L 45.945312 765.7168 C 41.307027 765.7168 36.987034 766.14153 31.107422 768.58008 C 28.167615 769.79932 24.669884 771.462 20.5 775.56445 C 16.330117 779.66694 11.109375 787.81756 11.109375 797.86328 L 11.109375 853.39844 C 11.109375 863.44416 16.330117 871.58896 20.5 875.69141 C 24.669884 879.79386 28.167615 881.45455 31.107422 882.67383 C 36.987034 885.11234 41.307027 885.53906 45.945312 885.53906 L 196.18945 885.53906 L 196.18945 936.23047 C 196.18945 944.234 196.83077 951.72192 201.36328 962.65039 C 203.62954 968.11464 206.74012 974.76919 214.7168 982.87695 C 222.69348 990.98472 238.74458 1001.3008 258.57227 1001.3008 L 317 1001.3008 L 317 1155.3184 C 317 1159.9567 317.4267 1164.2747 319.86523 1170.1543 C 321.0845 1173.0941 322.74522 1176.5938 326.84766 1180.7637 C 330.95008 1184.9335 339.10262 1190.1523 349.14844 1190.1523 L 404.68164 1190.1523 C 414.7277 1190.1523 422.87423 1184.9335 426.97656 1180.7637 C 431.07894 1176.5939 432.73971 1173.0941 433.95898 1170.1543 C 436.3975 1164.2748 436.82422 1159.9568 436.82422 1155.3184 L 436.82422 1001.3008 L 541.12109 1001.3008 L 541.12109 1155.3184 C 541.12109 1159.9567 541.54778 1164.2747 543.98633 1170.1543 C 545.20557 1173.0941 546.8663 1176.5938 550.96875 1180.7637 C 555.07124 1184.9335 563.21795 1190.1523 573.26367 1190.1523 L 628.79688 1190.1523 C 638.84259 1190.1523 646.99521 1184.9335 651.09766 1180.7637 C 655.20011 1176.5938 656.85498 1173.0941 658.07422 1170.1543 C 660.51277 1164.2747 660.9375 1159.9567 660.9375 1155.3184 L 660.9375 1001.3008 L 765.23633 1001.3008 L 765.23633 1155.3184 C 765.23633 1159.9567 765.6611 1164.2747 768.09961 1170.1543 C 769.31888 1173.0941 770.98153 1176.5938 775.08398 1180.7637 C 779.18643 1184.9335 787.33905 1190.1523 797.38477 1190.1523 L 852.91797 1190.1523 C 862.96369 1190.1523 871.10845 1184.9335 875.21094 1180.7637 C 879.31339 1176.5938 880.97607 1173.0941 882.19531 1170.1543 C 884.63386 1164.2747 885.05859 1159.9567 885.05859 1155.3184 L 885.05859 1001.3008 L 940.48242 1001.3008 C 960.3099 1001.3008 976.35335 990.98464 984.33008 982.87695 C 992.30681 974.7693 995.42509 968.11464 997.69141 962.65039 C 1002.224 951.72189 1002.8594 944.23415 1002.8594 936.23047 L 1002.8594 883.69336 L 1154.5645 883.69336 C 1159.2029 883.69336 1163.515 883.26863 1169.3945 880.83008 C 1172.3343 879.61084 1175.8322 877.94804 1180.002 873.8457 C 1184.1718 869.74333 1189.3926 861.59098 1189.3926 851.54492 L 1189.3926 796.01172 C 1189.3926 785.966 1184.1718 777.8212 1180.002 773.71875 C 1175.8322 769.6163 1172.3344 767.95369 1169.3945 766.73438 C 1163.5149 764.29579 1159.2029 763.87109 1154.5645 763.87109 L 1002.8594 763.87109 L 1002.8594 659.40234 L 1154.5645 659.40234 C 1159.2027 659.40234 1163.5149 658.97566 1169.3945 656.53711 C 1172.3344 655.31787 1175.8321 653.66495 1180.002 649.5625 C 1184.1718 645.46005 1189.3926 637.30744 1189.3926 627.26172 L 1189.3926 571.72656 C 1189.3926 561.6805 1184.1718 553.53597 1180.002 549.43359 C 1175.8322 545.33126 1172.3343 543.67041 1169.3945 542.45117 C 1163.515 540.01266 1159.2029 539.58594 1154.5645 539.58594 L 1002.8594 539.58594 L 1002.8594 435.11719 L 1154.5645 435.11719 C 1159.2027 435.11719 1163.5149 434.69242 1169.3945 432.25391 C 1172.3344 431.03463 1175.8321 429.37393 1180.002 425.27148 C 1184.1718 421.16903 1189.3926 413.02228 1189.3926 402.97656 L 1189.3926 347.44336 C 1189.3926 337.39754 1184.1718 329.24501 1180.002 325.14258 C 1175.8321 321.04015 1172.3343 319.38528 1169.3945 318.16602 C 1163.5149 315.72748 1159.2028 315.30273 1154.5645 315.30273 L 1002.8594 315.30273 L 1002.8594 260.80273 C 1002.8594 252.79899 1002.224 245.31132 997.69141 234.38281 C 995.42509 228.91856 992.30681 222.26392 984.33008 214.15625 C 976.35335 206.04858 960.3099 195.73047 940.48242 195.73047 L 884.40234 195.73047 L 884.40234 43.921875 C 884.40234 39.283442 883.97566 34.963511 881.53711 29.083984 C 880.31787 26.144221 878.66487 22.654186 874.5625 18.484375 C 870.46013 14.314564 862.30778 9.09375 852.26172 9.09375 L 796.72656 9.09375 C 786.6805 9.09375 778.53597 14.314564 774.43359 18.484375 C 770.33126 22.654186 768.67041 26.144221 767.45117 29.083984 C 765.01266 34.963511 764.5859 39.283442 764.58594 43.921875 L 764.58594 195.73047 L 660.47266 195.73047 L 660.47266 43.921875 C 660.47266 39.283442 660.04601 34.963605 657.60742 29.083984 C 656.38811 26.144174 654.7353 22.654181 650.63281 18.484375 C 646.53036 14.314569 638.37775 9.09375 628.33203 9.09375 L 572.79688 9.09375 C 562.75082 9.09375 554.60624 14.314564 550.50391 18.484375 C 546.40153 22.654186 544.74076 26.144221 543.52148 29.083984 C 541.08297 34.963511 540.65625 39.283442 540.65625 43.921875 L 540.65625 195.73047 L 436.55078 195.73047 L 436.55078 43.921875 C 436.55078 39.283442 436.12406 34.963511 433.68555 29.083984 C 432.46631 26.144221 430.80546 22.654186 426.70312 18.484375 C 422.60075 14.314564 414.4484 9.09375 404.40234 9.09375 L 348.86719 9.09375 z M 317.13281 316.67578 L 503.84375 316.67578 L 503.84375 369.28711 A 34.01915 34.01915 0 0 0 513.80078 393.33594 L 637.05664 516.5918 L 637.05664 574.4707 C 618.98813 586.78629 606.96875 607.52227 606.96875 630.7168 C 606.96875 667.88667 637.83016 698.74805 675 698.74805 C 709.81262 698.74805 738.74865 671.58214 742.32227 637.61133 A 34.015748 34.015748 0 0 0 743.03125 630.75391 A 34.015748 34.015748 0 0 0 743.03125 630.7168 A 34.015748 34.015748 0 0 0 742.32227 623.79883 C 739.8503 600.36226 725.30402 580.1721 705.08789 569.90625 L 705.08789 502.5 A 34.01915 34.01915 0 0 0 695.12305 478.44922 L 571.875 355.19531 L 571.875 316.67578 L 881.91406 316.67578 L 881.91406 880.34961 L 668.16406 880.34961 L 668.16406 830.80273 A 34.01915 34.01915 0 0 0 658.20703 806.75195 L 534.95117 683.49609 L 534.95117 625.61914 C 553.0197 613.30356 565.03906 592.56761 565.03906 569.37305 C 565.03906 532.20321 534.17765 501.3418 497.00781 501.3418 C 462.1939 501.3418 433.25743 528.50597 429.68555 562.47852 A -34.015748 -34.015748 0 0 0 428.97656 569.33594 A -34.015748 -34.015748 0 0 0 428.97656 569.37305 A -34.015748 -34.015748 0 0 0 429.68555 576.28125 C 432.1552 599.72075 446.70214 619.91269 466.91992 630.17969 L 466.91992 697.58789 A 34.01915 34.01915 0 0 0 476.88477 721.63867 L 600.13281 844.89453 L 600.13281 880.34961 L 317.13281 880.34961 L 317.13281 316.67578 z "
       style="color:#000000;font-style:normal;font-variant:normal;font-weight:normal;font-stretch:normal;font-size:medium;line-height:normal;font-family:sans-serif;font-variant-ligatures:normal;font-variant-position:normal;font-variant-caps:normal;font-variant-numeric:normal;font-variant-alternates:normal;font-variant-east-asian:normal;font-feature-settings:normal;font-variation-settings:normal;text-indent:0;text-align:start;text-decoration:none;text-decoration-line:none;text-decoration-style:solid;text-decoration-color:#000000;letter-spacing:normal;word-spacing:normal;text-transform:none;writing-mode:lr-tb;direction:ltr;text-orientation:mixed;dominant-baseline:auto;baseline-shift:baseline;text-anchor:start;white-space:normal;shape-padding:0;shape-margin:0;inline-size:0;clip-rule:nonzero;display:inline;overflow:visible;visibility:visible;opacity:1;isolation:auto;mix-blend-mode:normal;color-interpolation:sRGB;color-interpolation-filters:linearRGB;solid-color:#000000;solid-opacity:1;vector-effect:none;fill:#000000;fill-opacity:1;fill-rule:nonzero;stroke:none;stroke-width:120.945;stroke-linecap:round;stroke-linejoin:miter;stroke-miterlimit:4;stroke-dasharray:none;stroke-dashoffset:0;stroke-opacity:1;color-rendering:auto;image-rendering:auto;shape-rendering:auto;text-rendering:auto;enable-background:accumulate;stop-color:#000000;stop-opacity:1"
       id="path880" />
  </g>
</svg>
